<?xml version="1.0" encoding="UTF-8" standalone="no"?>
<!-- Created with Inkscape (http://www.inkscape.org/) -->

<svg
   id="svg2385"
   version="1.1"
   viewBox="0 0 115.24821 17.948195"
   height="17.948195mm"
   width="115.24821mm"
   xmlns="http://www.w3.org/2000/svg"
   xmlns:svg="http://www.w3.org/2000/svg">
  <defs
     id="defs2382">
    <rect
       x="131.47443"
       y="153.00122"
       width="339.15631"
       height="154.91742"
       id="rect464" />
  </defs>
  <g
     id="layer1"
     transform="translate(-0.37589694,-1.0259015)">
    <g
       id="g2178"
       transform="matrix(1.0797072,0,0,1.0797072,-25.014972,-71.946779)">
      <g
         id="g3043"
         transform="translate(-1.0631806)">
        <g
           aria-label="EasyCrypto"
           transform="matrix(1.4758359,0,0,1.4758359,-152.13291,-160.29459)"
           id="text462"
           style="white-space:pre;shape-inside:url(#rect464);display:inline;fill:#e6e6e6">
          <path
             d="m 138.09861,163.61914 h -3.024 q -1.44,0 -2.028,-0.492 -0.576,-0.504 -0.576,-1.764 v -6.288 h 5.628 v 1.488 h -3.96 v 2.004 h 2.772 l -0.12,1.488 h -2.652 v 1.188 q 0,0.504 0.228,0.696 0.228,0.192 0.828,0.192 h 2.904 z"
             style="font-family:Viga;-inkscape-font-specification:Viga;fill:#2d37a8"
             id="path3045" />
          <path
             d="m 144.3266,163.61914 h -1.044 l -0.48,-0.828 -1.668,0.9 q -1.392,0 -1.872,-1.008 -0.24,-0.492 -0.336,-1.056 -0.084,-0.576 -0.084,-1.188 0,-0.624 0.012,-0.912 0.012,-0.3 0.06,-0.684 0.048,-0.396 0.132,-0.66 0.096,-0.264 0.264,-0.54 0.168,-0.288 0.408,-0.456 0.54,-0.372 1.404,-0.372 h 1.644 l 1.56,-0.096 z m -1.56,-2.184 v -3.216 h -1.188 q -0.66,0 -0.924,0.504 -0.252,0.504 -0.252,1.512 0,0.996 0.24,1.404 0.252,0.408 0.936,0.408 z"
             style="font-family:Viga;-inkscape-font-specification:Viga;fill:#2d37a8"
             id="path3047" />
          <path
             d="m 150.72259,161.72314 v 0.18 q -0.072,0.9 -0.768,1.356 -0.684,0.456 -1.716,0.456 -1.524,0 -2.136,-0.552 -0.564,-0.504 -0.564,-1.488 v -0.144 h 1.416 q 0,0.552 0.288,0.756 0.288,0.204 0.996,0.204 0.96,0 0.96,-0.696 0,-0.576 -0.336,-0.768 -0.156,-0.096 -0.396,-0.144 l -1.212,-0.204 q -1.584,-0.252 -1.584,-1.98 0,-0.96 0.696,-1.488 0.708,-0.54 1.788,-0.54 2.46,0 2.46,2.124 v 0.156 h -1.356 q -0.024,-0.564 -0.3,-0.768 -0.276,-0.204 -0.78,-0.204 -0.492,0 -0.744,0.204 -0.252,0.192 -0.252,0.432 0,0.684 0.552,0.78 l 1.452,0.264 q 1.536,0.288 1.536,2.064 z"
             style="font-family:Viga;-inkscape-font-specification:Viga;fill:#2d37a8"
             id="path3049" />
          <path
             d="m 157.03458,156.76714 -2.604,7.62 q -0.18,0.516 -0.468,0.804 -0.48,0.48 -1.344,0.48 h -0.732 v -1.404 h 0.48 q 0.336,0 0.492,-0.12 0.168,-0.108 0.288,-0.444 l 0.12,-0.336 -2.064,-6.6 h 1.644 l 1.224,4.764 1.32,-4.764 z"
             style="font-family:Viga;-inkscape-font-specification:Viga;fill:#2d37a8"
             id="path3051" />
          <path
             d="m 162.39857,160.30714 h 1.548 q 0,1.632 -0.816,2.508 -0.816,0.876 -2.304,0.876 -3.276,0 -3.276,-3.852 v -0.72 q 0,-3.036 1.68,-3.804 0.66,-0.312 1.596,-0.312 1.368,0 2.22,0.756 0.864,0.744 0.864,2.16 h -1.56 q -0.132,-0.708 -0.468,-1.068 -0.336,-0.36 -1.056,-0.36 -0.84,0 -1.248,0.528 -0.288,0.372 -0.336,1.272 -0.024,0.288 -0.024,0.78 v 0.744 q 0,1.38 0.384,1.884 0.396,0.504 1.224,0.504 0.84,0 1.152,-0.456 0.324,-0.468 0.42,-1.44 z"
             style="font-family:Viga;-inkscape-font-specification:Viga;fill:#2d37a8"
             id="path3053" />
          <path
             d="m 168.87855,156.79114 -0.432,1.536 q -0.18,-0.072 -0.408,-0.072 -0.6,0 -1.476,0.516 v 4.848 h -1.56 v -6.852 h 1.164 l 0.36,0.6 1.656,-0.684 q 0.12,-0.012 0.324,-0.012 0.204,0 0.372,0.12 z"
             style="font-family:Viga;-inkscape-font-specification:Viga;fill:#2d37a8"
             id="path3055" />
          <path
             d="m 174.92655,156.76714 -2.604,7.62 q -0.18,0.516 -0.468,0.804 -0.48,0.48 -1.344,0.48 h -0.732 v -1.404 h 0.48 q 0.336,0 0.492,-0.12 0.168,-0.108 0.288,-0.444 l 0.12,-0.336 -2.064,-6.6 h 1.644 l 1.224,4.764 1.32,-4.764 z"
             style="font-family:Viga;-inkscape-font-specification:Viga;fill:#2d37a8"
             id="path3057" />
          <path
             d="m 181.32254,160.00714 q 0,2.676 -1.38,3.42 -0.564,0.3 -1.38,0.3 l -1.152,-0.744 v 2.676 h -1.56 v -8.844 h 3.072 q 1.392,0 1.896,0.792 0.504,0.78 0.504,2.4 z m -1.56,0.24 q 0,-2.028 -1.296,-2.028 h -1.056 v 3.18 l 1.056,0.684 q 0.696,0 0.996,-0.432 0.3,-0.444 0.3,-1.404 z"
             style="font-family:Viga;-inkscape-font-specification:Viga;fill:#2d37a8"
             id="path3059" />
          <path
             d="m 185.49853,163.61914 h -0.972 q -0.888,0 -1.356,-0.528 -0.456,-0.528 -0.456,-1.26 v -3.6 h -0.66 v -1.188 h 0.66 v -1.344 h 1.56 v 1.344 h 1.104 v 1.188 h -1.104 v 3.504 q 0,0.564 0.54,0.564 h 0.684 z"
             style="font-family:Viga;-inkscape-font-specification:Viga;fill:#2d37a8"
             id="path3061" />
          <path
             d="m 190.50253,160.52314 v -0.624 q 0,-0.888 -0.264,-1.356 -0.252,-0.468 -1.068,-0.468 -1.32,0 -1.32,1.776 v 0.624 q 0,1.908 1.32,1.908 0.852,0 1.116,-0.636 0.216,-0.504 0.216,-1.224 z m 1.56,-0.36 q 0,2.22 -0.84,2.976 -0.708,0.648 -2.052,0.648 -1.716,0 -2.316,-1.008 -0.564,-0.924 -0.564,-2.616 0,-1.584 0.564,-2.484 0.624,-1.008 2.268,-1.008 1.656,0 2.292,0.888 0.648,0.876 0.648,2.604 z"
             style="font-family:Viga;-inkscape-font-specification:Viga;fill:#2d37a8"
             id="path3063" />
        </g>
        <path
           d="m 39.97229,76.521284 h -1.402113 v 0 h -1.135971 c -0.01709,0.105203 -0.038,0.20921 -0.06215,0.311803 -0.05875,0.250246 -0.138,0.492449 -0.235563,0.725195 -0.01203,0.02876 -0.02396,0.05773 -0.03663,0.08629 -0.720971,1.627412 -2.351401,2.765397 -4.242538,2.765195 -0.373966,0 -0.73807,-0.04446 -1.086488,-0.128952 -0.370944,-0.08892 -0.724792,-0.223092 -1.055503,-0.396495 -1.481974,-0.774279 -2.495639,-2.32706 -2.495639,-4.112187 0,-1.578934 0.793392,-2.976419 2.002585,-3.814264 -0.01488,-0.04305 -0.02918,-0.08669 -0.04285,-0.130549 -0.105817,-0.337352 -0.177828,-0.686773 -0.214846,-1.040219 -0.426063,0.248238 -0.822957,0.553403 -1.181029,0.911474 -1.088092,1.087893 -1.68716,2.534863 -1.68716,4.073565 0,1.5387 0.599068,2.985671 1.68716,4.073563 0.505527,0.505526 1.0885,0.90564 1.721962,1.18908 0.357064,0.159522 0.730221,0.282031 1.114648,0.365513 0.401924,0.08771 0.81612,0.132762 1.237157,0.132972 1.5387,0 2.985268,-0.599267 4.073563,-1.687562 0.630649,-0.630648 1.096742,-1.381591 1.377569,-2.201131 h 1.454212 c -0.824971,3.039782 -3.608271,5.281952 -6.905344,5.281952 -0.421842,0 -0.835233,-0.03681 -1.237157,-0.107212 -0.386035,-0.06738 -0.761202,-0.166362 -1.123299,-0.292894 -2.78873,-0.977454 -4.793932,-3.636435 -4.793932,-6.75427 0,-3.118037 2.005202,-5.777019 4.793932,-6.754272 v 0 1.201551 c 0,0.09716 0.0029,0.193923 0.0087,0.290279 0.02313,0.394482 0.09394,0.779711 0.209816,1.14965 0,0 2.28e-4,2e-4 0,2e-4 0.228522,0.730427 0.631653,1.399698 1.188273,1.956519 0.90745,0.907047 2.113625,1.406738 3.396447,1.406536 h 2.134144 l 2.28e-4,2e-4 1.135367,-2e-4 h 4.01e-4 c -0.0013,-0.0088 -0.0026,-0.0175 -0.0038,-0.02634 -3.99e-4,-0.0026 -8.32e-4,-0.0052 -0.0013,-0.0078 -0.0047,-0.0366 -0.01011,-0.07323 -0.01551,-0.109643 -0.0074,-0.04768 -0.01549,-0.09535 -0.02396,-0.142826 -0.0042,-0.02413 -0.0087,-0.04787 -0.01345,-0.07141 -0.01373,-0.07121 -0.02854,-0.141619 -0.04506,-0.211826 -0.04367,-0.187283 -0.09656,-0.372152 -0.158717,-0.553401 -0.06538,-0.191307 -0.14122,-0.378588 -0.226712,-0.561446 -0.280649,-0.601683 -0.667488,-1.155687 -1.150883,-1.639284 -1.088295,-1.088296 -2.534863,-1.687361 -4.073562,-1.687361 -0.227516,0 -0.453021,0.01288 -0.675509,0.03882 v 0.16935 c 0,0.301344 0.04285,0.598663 0.127541,0.884116 0.0063,0.02052 0.01241,0.04104 0.01913,0.06115 0.173403,-0.02011 0.350226,-0.03017 0.52886,-0.03017 1.66503,0 3.12789,0.881902 3.946021,2.203346 0.110846,0.179438 0.210017,0.367124 0.296317,0.56165 h -1.799613 c -1.666638,0 -3.078206,-1.113845 -3.529214,-2.636452 -0.09817,-0.331114 -0.150672,-0.681343 -0.150672,-1.043435 v -0.07624 -1.418405 -1.138988 -3.99e-4 c -0.3804,0.05692 -0.75537,0.140411 -1.1233,0.250247 v 2.28e-4 0 c -0.291685,0.0865 -0.579146,0.189699 -0.861781,0.308986 -0.985906,0.417015 -1.871024,1.013868 -2.631021,1.774064 -0.759997,0.759998 -1.35685,1.645118 -1.77366,2.630618 -0.4319,1.020904 -0.650767,2.104975 -0.650767,3.22244 0,1.117264 0.218867,2.201134 0.650767,3.222039 0.41681,0.985903 1.013663,1.871024 1.77366,2.63102 0.759997,0.759996 1.645115,1.356648 2.631021,1.773661 0.282635,0.119494 0.570096,0.222888 0.861781,0.309388 0.36793,0.109835 0.7429,0.193118 1.1233,0.250047 0.406553,0.06096 0.819742,0.09154 1.23716,0.09154 1.117061,0 2.201328,-0.219066 3.222033,-0.650965 0.985906,-0.417012 1.871025,-1.013664 2.631021,-1.773661 0.760196,-0.759995 1.356849,-1.645115 1.773663,-2.631019 0.18567,-0.438939 0.332119,-0.889747 0.438332,-1.349608 0.0855,-0.368931 0.145241,-0.743499 0.178836,-1.123296 h -1.128929"
           style="fill:#2d37a8;fill-opacity:1;fill-rule:nonzero;stroke:none;stroke-width:0.00201164"
           id="path463" />
      </g>
    </g>
  </g>
</svg>
